<mxfile host="ac.draw.io" modified="2024-06-12T11:50:33.595Z" agent="Mozilla/5.0 (Macintosh; Intel Mac OS X 10_15_7) AppleWebKit/605.1.15 (KHTML, like Gecko) Version/17.4.1 Safari/605.1.15" etag="1lxv27yjia7V7VJHwWt8" version="24.5.3" type="embed">
  <diagram id="ZRuPEpv637OjjF20BVkI" name="Page-1">
    <mxGraphModel dx="-29992" dy="4320" grid="1" gridSize="10" guides="1" tooltips="1" connect="1" arrows="1" fold="1" page="1" pageScale="1" pageWidth="827" pageHeight="1169" math="0" shadow="0">
      <root>
        <mxCell id="0" />
        <mxCell id="1" parent="0" />
        <mxCell id="rSGnqXc-1Tp41g4EN2aE-1" value="&lt;span style=&quot;font-size: 40px;&quot;&gt;HTF&lt;/span&gt;" style="shape=hexagon;perimeter=hexagonPerimeter2;whiteSpace=wrap;html=1;fixedSize=1;fillColor=#e1d5e7;strokeColor=#9673a6;rotation=0;" parent="1" vertex="1">
          <mxGeometry x="31600" y="-3080" width="480" height="40" as="geometry" />
        </mxCell>
        <mxCell id="rSGnqXc-1Tp41g4EN2aE-2" value="&lt;span style=&quot;font-size: 40px;&quot;&gt;LTF&lt;/span&gt;" style="shape=hexagon;perimeter=hexagonPerimeter2;whiteSpace=wrap;html=1;fixedSize=1;fillColor=#fff2cc;strokeColor=#d6b656;rotation=0;" parent="1" vertex="1">
          <mxGeometry x="31600" y="-3000" width="480" height="40" as="geometry" />
        </mxCell>
        <mxCell id="rSGnqXc-1Tp41g4EN2aE-3" value="&lt;span style=&quot;font-size: 40px;&quot;&gt;CFG&lt;/span&gt;" style="shape=hexagon;perimeter=hexagonPerimeter2;whiteSpace=wrap;html=1;fixedSize=1;fillColor=#f5f5f5;strokeColor=#666666;rotation=0;fontColor=#333333;" parent="1" vertex="1">
          <mxGeometry x="31600" y="-2840" width="480" height="40" as="geometry" />
        </mxCell>
        <mxCell id="rSGnqXc-1Tp41g4EN2aE-5" value="&lt;span style=&quot;font-size: 40px;&quot;&gt;TOK&lt;/span&gt;" style="shape=hexagon;perimeter=hexagonPerimeter2;whiteSpace=wrap;html=1;fixedSize=1;fillColor=#ffe6cc;strokeColor=#d79b00;rotation=0;" parent="1" vertex="1">
          <mxGeometry x="31600" y="-2760" width="480" height="40" as="geometry" />
        </mxCell>
        <mxCell id="rSGnqXc-1Tp41g4EN2aE-7" value="&lt;span style=&quot;font-size: 40px;&quot;&gt;MIX&lt;/span&gt;" style="shape=hexagon;perimeter=hexagonPerimeter2;whiteSpace=wrap;html=1;fixedSize=1;fillColor=#d5e8d4;strokeColor=#82b366;rotation=0;" parent="1" vertex="1">
          <mxGeometry x="31600" y="-2922" width="480" height="40" as="geometry" />
        </mxCell>
        <mxCell id="rSGnqXc-1Tp41g4EN2aE-8" value="High Throughput Fabric: max 512b/cycle, streaming data" style="text;html=1;strokeColor=none;fillColor=none;align=left;verticalAlign=middle;whiteSpace=wrap;rounded=0;fontSize=35;" parent="1" vertex="1">
          <mxGeometry x="32120" y="-3080" width="920" height="40" as="geometry" />
        </mxCell>
        <mxCell id="rSGnqXc-1Tp41g4EN2aE-9" value="Low Throughput Fabric: max 64b/cycle, control data" style="text;html=1;strokeColor=none;fillColor=none;align=left;verticalAlign=middle;whiteSpace=wrap;rounded=0;fontSize=35;" parent="1" vertex="1">
          <mxGeometry x="32120" y="-3000" width="920" height="40" as="geometry" />
        </mxCell>
        <mxCell id="rSGnqXc-1Tp41g4EN2aE-10" value="Mixed Fabric: custom b/cycle, streaming &amp;amp; control data" style="text;html=1;strokeColor=none;fillColor=none;align=left;verticalAlign=middle;whiteSpace=wrap;rounded=0;fontSize=35;" parent="1" vertex="1">
          <mxGeometry x="32120" y="-2922" width="920" height="40" as="geometry" />
        </mxCell>
        <mxCell id="rSGnqXc-1Tp41g4EN2aE-11" value="Config Fabric: 32b/cycle, APB targets, quasi static config data" style="text;html=1;strokeColor=none;fillColor=none;align=left;verticalAlign=middle;whiteSpace=wrap;rounded=0;fontSize=35;" parent="1" vertex="1">
          <mxGeometry x="32120" y="-2840" width="1050" height="40" as="geometry" />
        </mxCell>
        <mxCell id="rSGnqXc-1Tp41g4EN2aE-13" value="Token Fabric: point to point OCP-Lite connections" style="text;html=1;strokeColor=none;fillColor=none;align=left;verticalAlign=middle;whiteSpace=wrap;rounded=0;fontSize=35;" parent="1" vertex="1">
          <mxGeometry x="32120" y="-2760" width="1050" height="40" as="geometry" />
        </mxCell>
      </root>
    </mxGraphModel>
  </diagram>
</mxfile>
